# xmcd
#
# Track frame offsets:
#	150
#	16182
#	33974
#	53089
#	89616
#	108824
#	126144
#	155328
#	175867
#	188272
#	208970
#	231379
#	251250
#	272366
#	292939
#
# Disc length: 4123 seconds
#
# Revision: 2
# Processed by: cddbd v1.5.2PL0 Copyright (c) Steve Scherf et al.
# Submitted via: audiograbber 1.83.01
#
DISCID=bb10190f
DTITLE=The Hoochie Coochie Men featuring Jon Lord - Danger White Men Dancing
DYEAR=2009
DGENRE=Blues-Rock
TTITLE0=The Blues Just Got Sadder
TTITLE1=Gotta Find Me Some Fire
TTITLE2=Twisted System
TTITLE3=Over and Over
TTITLE4=Let It Go
TTITLE5=Heart Of Stone
TTITLE6=If This Ain't The Blues
TTITLE7=Danger White Men Dancing
TTITLE8=Dead Presidents
TTITLE9=Hoochie Coochie Man
TTITLE10=Bottle O'Wine
TTITLE11=Everybody Wants To Go To Heaven
TTITLE12=Tell Your Story Walkin'
TTITLE13=She Whines
TTITLE14=Playing The Blues
EXTD=
EXTT0=
EXTT1=
EXTT2=
EXTT3=
EXTT4=
EXTT5=
EXTT6=
EXTT7=
EXTT8=
EXTT9=
EXTT10=
EXTT11=
EXTT12=
EXTT13=
EXTT14=
PLAYORDER=
